<?xml version="1.0" standalone="no"?>
<!DOCTYPE svg PUBLIC "-//W3C//DTD SVG 20010904//EN"
 "http://www.w3.org/TR/2001/REC-SVG-20010904/DTD/svg10.dtd">
<svg version="1.0" xmlns="http://www.w3.org/2000/svg"
 width="500.000000pt" height="500.000000pt" viewBox="0 0 500.000000 500.000000"
 preserveAspectRatio="xMidYMid meet">

<g transform="translate(0.000000,500.000000) scale(0.100000,-0.100000)"
fill="#d3d2d7" stroke="none">
<path d="M1240 3069 c0 -723 1 -737 71 -936 149 -421 510 -733 952 -823 94
-19 130 -22 270 -18 101 3 188 12 232 22 240 58 438 164 604 324 l76 73 -55
-30 c-116 -63 -310 -111 -447 -111 -266 0 -519 111 -708 311 -120 128 -195
262 -241 436 -25 94 -26 114 -34 458 -8 391 -10 405 -71 529 -111 224 -343
383 -596 410 l-53 5 0 -650z"/>
<path d="M3680 3710 c-75 -10 -164 -37 -232 -70 -204 -102 -358 -300 -397
-514 -6 -33 -11 -170 -11 -306 0 -315 -9 -391 -59 -495 -107 -226 -336 -345
-576 -301 -44 8 -89 17 -100 21 -11 4 12 -25 50 -64 109 -113 216 -176 380
-227 93 -29 324 -26 425 5 257 79 446 249 541 486 58 146 59 152 59 843 0 500
-3 632 -12 631 -7 -1 -38 -5 -68 -9z"/>
</g>
</svg>
